<svg xmlns="http://www.w3.org/2000/svg" xmlns:xlink="http://www.w3.org/1999/xlink" width="294" height="69" viewBox="0 0 294 69"><circle fill="#FFFFFF" cx="34.3" cy="34.3" r="34.3"/><defs><circle id="SVGID_1_" cx="34.3" cy="34.3" r="32"/></defs><clipPath id="SVGID_00000026853921975058555850000015111386995679349950_"><use xlink:href="#SVGID_1_" overflow="visible"/></clipPath><g clip-path="url(#SVGID_00000026853921975058555850000015111386995679349950_)"><path fill="#38bdf7" d="M2.3 2.3h64v64h-64z"/><path d="m60.3 53-26-40v53.3h26V53z" fill="#0d4a6e"/><path d="M10.3 55.4v10.9h21.3v-40L10.3 55.4z" fill="#e0f2fe"/></g><path fill="#FFFFFF" d="M211.1 16.9v15.6c-.4-.8-1-1.6-1.6-2.2-2.3-2.6-5.4-4-8.9-4-2.9 0-5.5 1-7.6 2.7l.8-2.2h-9.6l-4.2 11-4.2-11h-15.3v.1c-1.4-.5-2.6-.8-3.8-.8-1.7 0-3.4.3-5 1l-.1.1c-.9.5-2.2 1.1-3.3 2.2v-2.6H123v.1c-1.4-.5-2.6-.8-3.8-.8-1.7 0-3.4.3-5 1l-.1.1c-1 .5-2.6 1.4-3.8 2.8-1 1-1.9 2.4-2.5 4-.6 1.4-.9 3-.9 4.8 0 1.2.1 2.4.4 3.4h-6.1V16.9h-9.4v34h18.5v-3.4c1.1 1.2 2.5 2.2 4 2.8 1.5.6 3.2 1 5 1 1.4 0 2.7-.2 3.8-.7v.3h17.3V35.8h4.2c-.2.9-.3 1.8-.3 2.8 0 1.8.3 3.5.9 4.9.6 1.4 1.4 2.8 2.5 3.9 1.1 1.3 2.5 2.3 4 2.9 1.5.6 3.2 1 5 1 1.4 0 2.7-.2 3.8-.7v.3h9.1V35.5l6 15.4h8.9l3.9-10.1c.8 6.4 5.8 10.6 12.8 10.6 4.4 0 7.2-1.8 9.8-4.6v4.1h9.1v-34h-9zm-88.4 23.6c-.2.4-.4.8-.7 1.2-.4.4-.7.6-1 .7-.5.2-1 .3-1.5.3s-1-.1-1.5-.3c-.4-.2-.7-.4-1-.7-.4-.5-.6-.9-.8-1.3-.2-.5-.3-1-.3-1.6s.1-1.1.3-1.6c.2-.4.4-.8.8-1.3.4-.4.7-.6 1-.7.5-.2 1-.3 1.5-.3s1 .1 1.5.3c.4.2.7.4 1 .7.4.5.6.9.8 1.3.2.5.3 1 .3 1.6-.1.7-.2 1.2-.4 1.7zm37.5 0c-.2.4-.4.8-.7 1.2-.4.4-.7.6-1 .7-.5.2-1 .3-1.5.3s-1-.1-1.5-.3c-.4-.2-.7-.4-.9-.7-.4-.5-.6-.9-.8-1.3-.2-.5-.3-1-.3-1.6s.1-1.1.3-1.6c.2-.4.4-.8.8-1.3.4-.4.7-.6 1-.7.5-.2 1-.3 1.5-.3s1 .1 1.5.3c.4.2.7.4 1 .7.4.5.6.9.8 1.3.2.5.3 1 .3 1.6-.2.7-.3 1.2-.5 1.7zm50.9 2.5-.2-.1h.2v.1z"/><path d="M98.9 44.4h9.1v4.3H94V19.2h4.9v25.2zm26.4-15.3h4.6v19.6h-4.6V46c-.6 1-1.5 1.8-2.6 2.3-1.1.6-2.3.8-3.5.8-1.5 0-2.9-.3-4.1-.8s-2.3-1.3-3.2-2.3c-.9-1-1.6-2.1-2.1-3.3s-.7-2.6-.7-4 .2-2.7.7-3.9 1.2-2.4 2.1-3.3c.9-1 2-1.7 3.2-2.3 1.2-.5 2.6-.8 4.1-.8 1.2 0 2.3.3 3.5.8 1.1.6 2 1.3 2.6 2.3v-2.4zm0 9.8c0-.8-.1-1.6-.4-2.4-.3-.8-.7-1.4-1.2-2s-1.1-1-1.8-1.3c-.7-.3-1.5-.5-2.4-.5s-1.7.2-2.4.5-1.3.8-1.8 1.3c-.5.6-.9 1.2-1.2 2-.3.8-.4 1.6-.4 2.4 0 .8.1 1.6.4 2.4.3.8.7 1.4 1.2 2s1.1 1 1.8 1.3c.7.3 1.5.5 2.4.5s1.7-.2 2.4-.5 1.3-.8 1.8-1.3c.5-.6.9-1.2 1.2-2 .2-.7.4-1.5.4-2.4zm37.5-9.8h4.6v19.6h-4.6V46c-.6 1-1.5 1.8-2.6 2.3-1.1.6-2.3.8-3.5.8-1.5 0-2.9-.3-4.1-.8-1.2-.5-2.3-1.3-3.2-2.3s-1.6-2.1-2.1-3.3-.7-2.6-.7-4 .2-2.7.7-3.9 1.2-2.4 2.1-3.3c.9-1 2-1.7 3.2-2.3 1.2-.5 2.6-.8 4.1-.8 1.2 0 2.3.3 3.5.8 1.1.6 2 1.3 2.6 2.3v-2.4zm0 9.8c0-.8-.1-1.6-.4-2.4-.3-.8-.7-1.4-1.2-2s-1.1-1-1.8-1.3-1.5-.5-2.4-.5-1.7.2-2.4.5-1.3.8-1.8 1.3c-.5.6-.9 1.2-1.2 2s-.4 1.6-.4 2.4c0 .8.1 1.6.4 2.4.3.8.7 1.4 1.2 2s1.1 1 1.8 1.3 1.5.5 2.4.5 1.7-.2 2.4-.5 1.3-.8 1.8-1.3c.5-.6.9-1.2 1.2-2 .2-.7.4-1.5.4-2.4zm50.6-19.7v29.5h4.6V19.2h-4.6zm-79.9 29.5h4.6V33.6h7.9v-4.5h-12.5v19.6zm52.4-19.6-5.8 15-5.8-15h-4.7l7.6 19.6h5.8l7.6-19.6h-4.7zm24.5 11.5h-15.3c0 1.7 1.7 5 5.8 5 3.5 0 5.9-3.1 5.9-3.1l3.1 2.4c-2.8 3-5.1 4.3-8.6 4.3-6.4 0-10.7-4-10.7-10.3 0-5.7 4.5-10.3 10.1-10.3 6.2 0 10.5 5.5 9.7 12zm-4.2-3.4c0-.4-.6-5-5.6-5s-5.5 4.6-5.5 5h11.1z"/><g><path fill="#FFFFFF" d="m248.7 34.8-.1-.1h-.1c-1-.3-2.8-.9-5.1-1.4l-1.2-.3c-2.1-.5-3.6-1-4.6-1.7-.9-.5-1-1.5-1-2.2 0-1.3.5-2.3 1.4-3.1 1.1-.8 2.6-1.2 4.6-1.2 1.3 0 2.7.2 3.9.7 1.4.6 2.5 1.3 3.6 2.3l1.4 1.3 2.3-4.5-.7-.7c-1.3-1.3-2.9-2.4-4.7-3-1.8-.7-3.7-1-5.8-1-2 0-4 .4-5.9 1.1-1.8.9-3.2 1.9-4.1 3.3-1 1.5-1.4 3-1.4 4.9 0 2 .6 3.8 1.8 5 1.1 1.3 2.4 2.1 4 2.7 1.6.6 3.4 1.1 5.4 1.5l.6.2c1.2.3 2.3.6 3 .9.9.4 1.5.7 2 1.2.4.4.6.8.6 1.5 0 1.3-.4 2.2-1.4 2.9-1.1.8-2.7 1.1-4.7 1.1-1.7 0-3.3-.2-4.6-.7-1.2-.4-2.4-1.2-3.8-2.3l-1.3-1.2-2.3 4.4.8.7c1.4 1.3 3.1 2.3 5 3 1.7.6 3.9 1 6.3 1 2 0 4-.4 5.8-1.1 1.8-.7 3.2-1.8 4.2-3.2 1-1.5 1.4-3 1.4-4.8 0-2-.6-3.6-1.7-4.7-1-.9-2.1-1.7-3.6-2.5zM270.7 29.6c-.2-.1-.4-.2-.6-.4-1.4-.8-3-1.2-4.9-1.2-2.1 0-3.9.5-5.4 1.6-1.6 1.1-2.8 2.5-3.6 4.2-.8 1.8-1.2 3.9-1.2 6s.4 4.2 1.3 6c1 1.8 2.2 3.1 3.6 4 1.5.9 3.3 1.4 5.3 1.4 1.9 0 3.5-.4 4.9-1.2.2-.1.3-.2.5-.3v1.2h5.2V28.5h-5.1v1.1zm-1.4 15c-.9 1.1-2.1 1.6-3.7 1.6-1.7 0-2.9-.5-3.8-1.6-.9-1.2-1.4-2.9-1.4-5 0-2.3.4-4 1.4-5.1l.1-.1c.8-1.1 2-1.6 3.7-1.6 1.7 0 2.9.5 3.7 1.6.9 1.2 1.4 2.9 1.4 5.1-.1 2.4-.6 4.1-1.4 5.1zM288.5 19.4h5.2v31.5h-5.2zM279.2 20.5h6v5.8h-6zM279.6 28.5h5.2v22.3h-5.2z"/></g><path d="M251.3 38.4c.9.9 1.3 2.2 1.3 3.7s-.4 2.8-1.2 4-2 2.1-3.5 2.7c-1.5.6-3.3 1-5.3 1-2.2 0-4.2-.3-5.8-.9-1.7-.6-3.2-1.5-4.5-2.7l1-1.9c1.4 1.2 2.8 2.1 4.2 2.6s3.1.8 5.1.8c2.4 0 4.2-.5 5.5-1.4 1.3-1 2-2.3 2-4.1 0-1-.3-1.8-1-2.5s-1.5-1.1-2.4-1.5c-1-.4-2.3-.7-3.9-1.1-2.2-.5-3.9-1-5.3-1.5s-2.5-1.3-3.4-2.3-1.4-2.4-1.4-4.1c0-1.6.4-2.9 1.2-4.1s2-2.1 3.5-2.8c1.5-.6 3.3-1 5.3-1 1.9 0 3.7.3 5.3.9s3 1.5 4.2 2.7l-1 1.9c-1.3-1.2-2.6-2-4-2.6-1.4-.5-2.9-.8-4.5-.8-2.4 0-4.2.5-5.5 1.5s-2 2.4-2 4.2c0 1.5.6 2.7 1.7 3.4 1.2.8 2.8 1.4 5.1 1.9l1.1.3c2.1.5 3.8 1 5 1.4 1.3.7 2.3 1.4 3.2 2.3zM272 30h2.4v19.5H272v-3.7c-.6 1.3-1.4 2.3-2.6 3s-2.6 1-4.2 1c-1.8 0-3.3-.4-4.6-1.2-1.3-.8-2.3-2-3.1-3.5-.7-1.5-1.1-3.3-1.1-5.3s.4-3.8 1.1-5.4c.7-1.5 1.8-2.7 3.1-3.6s2.9-1.3 4.6-1.3c1.6 0 3 .3 4.2 1s2.1 1.7 2.7 3V30h-.1zm0 9.6c0-2.6-.6-4.6-1.7-6-1.1-1.4-2.7-2.1-4.8-2.1-2.1 0-3.7.7-4.8 2.2-1.2 1.4-1.7 3.4-1.7 6 0 2.5.6 4.5 1.7 5.9 1.2 1.4 2.8 2.1 4.9 2.1 2 0 3.6-.7 4.8-2.1 1.1-1.4 1.6-3.4 1.6-6zm8.6-14.7h3.2v-3h-3.2v3zm.4 24.6h2.4V30H281v19.5zm8.9-28.7v28.7h2.4V20.8h-2.4z"/></svg>