<svg xmlns="http://www.w3.org/2000/svg" viewBox="0 0 224 48" width="224" height="48">
    <circle fill="#38bdf7" cx="24" cy="24" r="24"/>
    <path fill="#0d4a6e" d="M43.5 38l-19.5-30v40c8 0 15.1-3.9 19.5-10z"/>
    <path fill="#e0f2fe" d="M6 39.8c4 4.5 9.6 7.5 16 8.1v-29.9l-16 21.8z"/>
    <path d="M74.1 30.7v-16.8h-4.1v20.7h12.1v-3.9h-8zM95.3 19.8v1.7c-1.1-1.3-2.7-2.2-4.9-2.2-4 0-7.3 3.4-7.3 7.8s3.3 7.8 7.3 7.8c2.2 0 3.8-.8 4.9-2.2v1.7h3.9v-14.6h-3.9zm-4.1 11.6c-2.4 0-4.1-1.7-4.1-4.2s1.8-4.2 4.1-4.2c2.4 0 4.2 1.7 4.2 4.2s-1.8 4.2-4.2 4.2zM106.5 22.3v-2.5h-3.9v14.8h3.9v-7.1c0-3.1 2.5-4 4.5-3.8v-4.3c-1.8.1-3.7.9-4.5 2.9zM124.1 19.8v1.7c-1.1-1.3-2.7-2.2-4.9-2.2-4 0-7.3 3.4-7.3 7.8s3.3 7.8 7.3 7.8c2.2 0 3.8-.8 4.9-2.2v1.7h3.9v-14.6h-3.9zm-4.1 11.6c-2.4 0-4.1-1.7-4.1-4.2s1.8-4.2 4.1-4.2c2.4 0 4.2 1.7 4.2 4.2s-1.9 4.2-4.2 4.2zM141.3 19.8l-3.6 10.3-3.7-10.3h-4.2l5.7 14.8h4.4l5.7-14.8h-4.3zM150 28.8h11.3c.1-.5.1-1 .1-1.6 0-4.3-3.1-7.8-7.6-7.8-4.7 0-7.9 3.4-7.9 7.8s3.2 7.8 8.2 7.8c2.9 0 5.1-1.2 6.5-3.2l-3.1-1.8c-.7.9-1.9 1.5-3.3 1.5-2 0-3.6-.8-4.2-2.7zm0-3c.4-1.9 1.9-3 3.9-3 1.6 0 3.2.9 3.7 3h-7.6zM164.1 34.6h3.9v-21.6h-3.9v21.6zM184.2 34.2c-1.2-.4-2.3-1.1-3.2-2l.7-1.4c1 .9 2 1.5 3 1.9 1 .4 2.2.6 3.7.6 1.7 0 3-.3 3.9-1 .9-.7 1.4-1.7 1.4-2.9 0-.7-.2-1.3-.7-1.8-.5-.5-1-.8-1.7-1.1-.7-.3-1.6-.5-2.8-.8-1.5-.3-2.8-.7-3.8-1.1-1-.4-1.8-.9-2.4-1.7-.7-.7-1-1.7-1-2.9 0-1.1.3-2.1.9-3 .6-.9 1.4-1.5 2.5-2s2.3-.7 3.8-.7c1.4 0 2.6.2 3.8.7 1.2.4 2.2 1.1 3 2l-.7 1.4c-.9-.8-1.9-1.5-2.9-1.9-1-.4-2-.6-3.2-.6-1.7 0-3 .4-4 1.1-.9.7-1.4 1.7-1.4 3 0 1.1.4 1.9 1.2 2.5.8.5 2 1 3.6 1.4l.8.2c1.5.4 2.7.7 3.6 1 .9.3 1.6.8 2.3 1.5.6.7.9 1.6.9 2.7s-.3 2.1-.9 2.9c-.6.8-1.4 1.5-2.5 1.9-1.1.5-2.3.7-3.8.7s-2.9-.2-4.1-.6zM211.2 20.4v14.1h-1.7v-2.7c-.4.9-1 1.7-1.9 2.2-.8.5-1.8.7-3 .7-1.3 0-2.4-.3-3.3-.9-.9-.6-1.7-1.4-2.2-2.5-.5-1.1-.8-2.4-.8-3.9s.3-2.8.8-3.9 1.3-2 2.2-2.6c.9-.6 2-.9 3.3-.9 1.1 0 2.1.2 3 .7.8.5 1.5 1.2 1.9 2.1v-2.5h1.7zm-2.9 11.3c.8-1 1.2-2.4 1.2-4.3s-.4-3.3-1.2-4.3c-.8-1-2-1.5-3.4-1.5s-2.6.5-3.5 1.6c-.8 1-1.2 2.5-1.2 4.3 0 1.8.4 3.2 1.2 4.2.8 1 2 1.5 3.5 1.5 1.4.1 2.6-.4 3.4-1.5zM215.6 14.6h2.3v2.2h-2.3v-2.2zm.3 20v-14.2h1.7v14.1h-1.7zM222.3 34.6v-20.8h1.7v20.8h-1.7z"/>
</svg>
