<svg xmlns="http://www.w3.org/2000/svg" xmlns:xlink="http://www.w3.org/1999/xlink" width="290" height="64" viewBox="0 0 290 64">
    <title>Laravel Sail logo</title>
    <path d="M96.6,42.1h9.1v4.3h-14V16.9h4.9V42.1z M123,26.8h4.6v19.6H123v-2.7c-0.6,1-1.5,1.8-2.6,2.3c-1.1,0.6-2.3,0.8-3.5,0.8 c-1.5,0-2.9-0.3-4.1-0.8c-1.2-0.5-2.3-1.3-3.2-2.3c-0.9-1-1.6-2.1-2.1-3.3c-0.5-1.2-0.7-2.6-0.7-4c0-1.4,0.2-2.7,0.7-3.9 c0.5-1.2,1.2-2.4,2.1-3.3c0.9-1,2-1.7,3.2-2.3c1.2-0.5,2.6-0.8,4.1-0.8c1.2,0,2.3,0.3,3.5,0.8c1.1,0.6,2,1.3,2.6,2.3V26.8z M123,36.6c0-0.8-0.1-1.6-0.4-2.4c-0.3-0.8-0.7-1.4-1.2-2c-0.5-0.6-1.1-1-1.8-1.3c-0.7-0.3-1.5-0.5-2.4-0.5c-0.9,0-1.7,0.2-2.4,0.5 c-0.7,0.3-1.3,0.8-1.8,1.3c-0.5,0.6-0.9,1.2-1.2,2c-0.3,0.8-0.4,1.6-0.4,2.4c0,0.8,0.1,1.6,0.4,2.4c0.3,0.8,0.7,1.4,1.2,2 c0.5,0.6,1.1,1,1.8,1.3c0.7,0.3,1.5,0.5,2.4,0.5c0.9,0,1.7-0.2,2.4-0.5c0.7-0.3,1.3-0.8,1.8-1.3c0.5-0.6,0.9-1.2,1.2-2 C122.8,38.3,123,37.5,123,36.6z M160.5,26.8h4.6v19.6h-4.6v-2.7c-0.6,1-1.5,1.8-2.6,2.3c-1.1,0.6-2.3,0.8-3.5,0.8 c-1.5,0-2.9-0.3-4.1-0.8c-1.2-0.5-2.3-1.3-3.2-2.3c-0.9-1-1.6-2.1-2.1-3.3c-0.5-1.2-0.7-2.6-0.7-4c0-1.4,0.2-2.7,0.7-3.9 c0.5-1.2,1.2-2.4,2.1-3.3c0.9-1,2-1.7,3.2-2.3c1.2-0.5,2.6-0.8,4.1-0.8c1.2,0,2.3,0.3,3.5,0.8c1.1,0.6,2,1.3,2.6,2.3V26.8z M160.5,36.6c0-0.8-0.1-1.6-0.4-2.4c-0.3-0.8-0.7-1.4-1.2-2c-0.5-0.6-1.1-1-1.8-1.3c-0.7-0.3-1.5-0.5-2.4-0.5 c-0.9,0-1.7,0.2-2.4,0.5c-0.7,0.3-1.3,0.8-1.8,1.3c-0.5,0.6-0.9,1.2-1.2,2c-0.3,0.8-0.4,1.6-0.4,2.4c0,0.8,0.1,1.6,0.4,2.4 c0.3,0.8,0.7,1.4,1.2,2c0.5,0.6,1.1,1,1.8,1.3c0.7,0.3,1.5,0.5,2.4,0.5c0.9,0,1.7-0.2,2.4-0.5c0.7-0.3,1.3-0.8,1.8-1.3 c0.5-0.6,0.9-1.2,1.2-2C160.3,38.3,160.5,37.5,160.5,36.6z M211.1,16.9v29.5h4.6V16.9H211.1z M131.2,46.4h4.6V31.3h7.9v-4.5h-12.5 V46.4z M183.6,26.8l-5.8,15l-5.8-15h-4.7l7.6,19.6h5.8l7.6-19.6H183.6z M208.1,38.3h-15.3c0,1.7,1.7,5,5.8,5c3.5,0,5.9-3.1,5.9-3.1 l3.1,2.4c-2.8,3-5.1,4.3-8.6,4.3c-6.4,0-10.7-4-10.7-10.3c0-5.7,4.5-10.3,10.1-10.3C204.6,26.3,208.9,31.8,208.1,38.3z M203.9,34.9 c0-0.4-0.6-5-5.6-5s-5.5,4.6-5.5,5H203.9z"/>
    <path d="M249,36.1c0.9,0.9,1.3,2.2,1.3,3.7c0,1.5-0.4,2.8-1.2,4c-0.8,1.2-2,2.1-3.5,2.7c-1.5,0.6-3.3,1-5.3,1 c-2.2,0-4.2-0.3-5.8-0.9c-1.7-0.6-3.2-1.5-4.5-2.7l1-1.9c1.4,1.2,2.8,2.1,4.2,2.6c1.4,0.5,3.1,0.8,5.1,0.8c2.4,0,4.2-0.5,5.5-1.4 c1.3-1,2-2.3,2-4.1c0-1-0.3-1.8-1-2.5s-1.5-1.1-2.4-1.5c-1-0.4-2.3-0.7-3.9-1.1c-2.2-0.5-3.9-1-5.3-1.5c-1.4-0.5-2.5-1.3-3.4-2.3 c-0.9-1-1.4-2.4-1.4-4.1c0-1.6,0.4-2.9,1.2-4.1c0.8-1.2,2-2.1,3.5-2.8c1.5-0.6,3.3-1,5.3-1c1.9,0,3.7,0.3,5.3,0.9 c1.6,0.6,3,1.5,4.2,2.7l-1,1.9c-1.3-1.2-2.6-2-4-2.6c-1.4-0.5-2.9-0.8-4.5-0.8c-2.4,0-4.2,0.5-5.5,1.5c-1.3,1-2,2.4-2,4.2 c0,1.5,0.6,2.7,1.7,3.4c1.2,0.8,2.8,1.4,5.1,1.9l1.1,0.3c2.1,0.5,3.8,1,5,1.4C247.1,34.5,248.1,35.2,249,36.1z M269.7,27.7h2.4 v19.5h-2.4v-3.7c-0.6,1.3-1.4,2.3-2.6,3c-1.2,0.7-2.6,1-4.2,1c-1.8,0-3.3-0.4-4.6-1.2c-1.3-0.8-2.3-2-3.1-3.5 c-0.7-1.5-1.1-3.3-1.1-5.3c0-2,0.4-3.8,1.1-5.4c0.7-1.5,1.8-2.7,3.1-3.6s2.9-1.3,4.6-1.3c1.6,0,3,0.3,4.2,1c1.2,0.7,2.1,1.7,2.7,3 V27.7z M269.7,37.3c0-2.6-0.6-4.6-1.7-6c-1.1-1.4-2.7-2.1-4.8-2.1c-2.1,0-3.7,0.7-4.8,2.2c-1.2,1.4-1.7,3.4-1.7,6 c0,2.5,0.6,4.5,1.7,5.9c1.2,1.4,2.8,2.1,4.9,2.1c2,0,3.6-0.7,4.8-2.1C269.2,41.9,269.7,39.9,269.7,37.3z M278.3,22.6h3.2v-3h-3.2 V22.6z M278.7,47.2h2.4V27.7h-2.4V47.2z M287.6,18.5v28.7h2.4V18.5H287.6z"/>
    <circle id="a" cx="32" cy="32" r="32"/>
    <clipPath id="b"><use xlink:href="#a"  style="overflow:visible;"/></clipPath>
    <g clip-path="url(#b)">
        <rect fill="#38bdf7" width="64" height="64"/>
        <path fill="#0d4a6e" d="M58,50.7l-26-40V64h26V50.7z"/>
        <path fill="#e0f2fe" d="M8,53.1V64h21.3V24L8,53.1z"/>
    </g>
</svg>
